<svg width="25" height="26" viewBox="0 0 25 26" fill="none" xmlns="http://www.w3.org/2000/svg">
<path d="M21.875 2.0625H3.12012C2.26074 2.0625 1.5625 2.77051 1.5625 3.63965V22.3604C1.5625 23.2295 2.26074 23.9375 3.12012 23.9375H21.875C22.7344 23.9375 23.4375 23.2295 23.4375 22.3604V3.63965C23.4375 2.77051 22.7344 2.0625 21.875 2.0625ZM8.17383 20.8125H4.93164V10.373H8.17871V20.8125H8.17383ZM6.55273 8.94727C5.5127 8.94727 4.67285 8.10254 4.67285 7.06738C4.67285 6.03223 5.5127 5.1875 6.55273 5.1875C7.58789 5.1875 8.43262 6.03223 8.43262 7.06738C8.43262 8.10742 7.59277 8.94727 6.55273 8.94727ZM20.3271 20.8125H17.085V15.7344C17.085 14.5234 17.0605 12.9658 15.4004 12.9658C13.7109 12.9658 13.4521 14.2842 13.4521 15.6465V20.8125H10.21V10.373H13.3203V11.7988H13.3643C13.7988 10.9785 14.8584 10.1143 16.4355 10.1143C19.7168 10.1143 20.3271 12.2773 20.3271 15.0898V20.8125Z" fill="#0077B5"/>
</svg>
