<svg width="44" height="11" viewBox="0 0 44 11" fill="none" xmlns="http://www.w3.org/2000/svg">
<path d="M7.10708 3.75806C6.84392 2.1377 6.22323 1 5.50091 1C4.77858 1 4.15789 2.1377 3.89474 3.75806H7.10708ZM3.75862 5.5C3.75862 5.90282 3.7804 6.28931 3.81851 6.66129H7.18149C7.2196 6.28931 7.24138 5.90282 7.24138 5.5C7.24138 5.09718 7.2196 4.71069 7.18149 4.33871H3.81851C3.7804 4.71069 3.75862 5.09718 3.75862 5.5ZM9.65154 3.75806C9.13249 2.52601 8.08167 1.57339 6.78403 1.18871C7.22686 1.80202 7.53176 2.7256 7.69147 3.75806H9.65154ZM4.21597 1.18871C2.92014 1.57339 1.86751 2.52601 1.35027 3.75806H3.31034C3.46824 2.7256 3.77314 1.80202 4.21597 1.18871ZM9.84573 4.33871H7.76407C7.80218 4.71976 7.82396 5.10988 7.82396 5.5C7.82396 5.89012 7.80218 6.28024 7.76407 6.66129H9.84392C9.94374 6.28931 10 5.90282 10 5.5C10 5.09718 9.94374 4.71069 9.84573 4.33871ZM3.17786 5.5C3.17786 5.10988 3.19964 4.71976 3.23775 4.33871H1.15608C1.05808 4.71069 1 5.09718 1 5.5C1 5.90282 1.05808 6.28931 1.15608 6.66129H3.23593C3.19964 6.28024 3.17786 5.89012 3.17786 5.5ZM3.89474 7.24194C4.15789 8.8623 4.77858 10 5.50091 10C6.22323 10 6.84392 8.8623 7.10708 7.24194H3.89474ZM6.78584 9.81129C8.08167 9.42661 9.1343 8.47399 9.65336 7.24194H7.69328C7.53357 8.2744 7.22867 9.19798 6.78584 9.81129ZM1.35027 7.24194C1.86933 8.47399 2.92015 9.42661 4.21779 9.81129C3.77495 9.19798 3.47005 8.2744 3.31034 7.24194H1.35027Z" stroke="#F5E9DA" stroke-width="0.5"/>
<path d="M11.2395 6.09692H11.4329L11.5317 6.56934C11.5933 6.64111 11.6863 6.70117 11.8108 6.74951C11.9353 6.79785 12.0642 6.82202 12.1975 6.82202C12.6179 6.82202 12.8281 6.64917 12.8281 6.30347C12.8281 6.19507 12.7878 6.10352 12.7073 6.02881C12.6282 5.9541 12.5029 5.88745 12.3315 5.82886C12.0796 5.74536 11.8979 5.67798 11.7866 5.62671C11.6768 5.57397 11.5837 5.51245 11.5076 5.44214C11.4314 5.37183 11.3706 5.28687 11.3252 5.18726C11.2798 5.08618 11.2571 4.9624 11.2571 4.81592C11.2571 4.55664 11.345 4.35962 11.5208 4.22485C11.698 4.08862 11.9565 4.02051 12.2964 4.02051C12.5425 4.02051 12.8149 4.052 13.1138 4.11499V4.81592H12.9182L12.8193 4.41162C12.6699 4.30322 12.4956 4.24902 12.2964 4.24902C12.1162 4.24902 11.9778 4.28271 11.8811 4.3501C11.7844 4.41602 11.7361 4.51782 11.7361 4.65552C11.7361 4.75366 11.7764 4.83789 11.8569 4.9082C11.9375 4.97705 12.0635 5.03857 12.2349 5.09277C12.5703 5.20264 12.8003 5.29858 12.9248 5.38062C13.0508 5.46118 13.1467 5.56152 13.2126 5.68164C13.2786 5.80176 13.3115 5.94312 13.3115 6.10571C13.3115 6.7312 12.9431 7.04395 12.2063 7.04395C12.0378 7.04395 11.8657 7.0293 11.6899 7C11.5156 6.97217 11.3655 6.93481 11.2395 6.88794V6.09692ZM14.006 7V6.8396L14.4741 6.78027V4.28638H14.362C14.0265 4.28638 13.7907 4.30103 13.6545 4.33032L13.5951 4.87744H13.3952V4.05347H16.2582V4.87744H16.0561L15.9968 4.33032C15.8752 4.30396 15.6349 4.29077 15.2761 4.29077H15.1684V6.78027L15.6364 6.8396V7H14.006ZM17.9877 6.73193C18.2074 6.73193 18.3773 6.67041 18.4974 6.54736C18.6175 6.42432 18.6776 6.24341 18.6776 6.00464V4.271L18.2821 4.21387V4.05347H19.284V4.21387L18.9501 4.271V5.98706C18.9501 6.3269 18.8519 6.58765 18.6556 6.76929C18.4593 6.95093 18.1788 7.04175 17.8141 7.04175C17.42 7.04175 17.1175 6.9502 16.9066 6.76709C16.6971 6.58252 16.5924 6.31665 16.5924 5.96948V4.271L16.2584 4.21387V4.05347H17.6625V4.21387L17.2845 4.271V6.00024C17.2845 6.23608 17.3439 6.41699 17.4625 6.54297C17.5826 6.66895 17.7577 6.73193 17.9877 6.73193ZM21.5188 5.52783C21.5188 5.10303 21.4412 4.79175 21.2859 4.59399C21.1307 4.39478 20.878 4.29517 20.5279 4.29517H20.3653V6.74951C20.5059 6.76123 20.6333 6.76709 20.7476 6.76709C20.938 6.76709 21.0882 6.72607 21.198 6.64404C21.3094 6.56201 21.3907 6.43384 21.4419 6.25952C21.4932 6.08374 21.5188 5.83984 21.5188 5.52783ZM20.6971 4.05347C21.2259 4.05347 21.6163 4.17358 21.8682 4.41382C22.1216 4.65259 22.2483 5.01807 22.2483 5.51025C22.2483 6.01562 22.1275 6.39209 21.8858 6.63965C21.6441 6.88574 21.2786 7.00879 20.7893 7.00879L19.8028 7H19.2974V6.8396L19.6753 6.78027V4.271L19.2974 4.21387V4.05347H20.6971ZM24.292 5.83984V6.78027L24.76 6.8396V7H23.1296V6.8396L23.5976 6.78027V5.85303L22.7011 4.271L22.3694 4.21387V4.05347H23.8855V4.21387L23.49 4.271L24.1623 5.50586L24.8127 4.271L24.4524 4.21387V4.05347H25.4543V4.21387L25.1423 4.271L24.292 5.83984ZM26.3797 6.09692H26.5731L26.672 6.56934C26.7335 6.64111 26.8265 6.70117 26.951 6.74951C27.0755 6.79785 27.2044 6.82202 27.3377 6.82202C27.7581 6.82202 27.9683 6.64917 27.9683 6.30347C27.9683 6.19507 27.9281 6.10352 27.8475 6.02881C27.7684 5.9541 27.6431 5.88745 27.4718 5.82886C27.2198 5.74536 27.0382 5.67798 26.9268 5.62671C26.817 5.57397 26.724 5.51245 26.6478 5.44214C26.5716 5.37183 26.5108 5.28687 26.4654 5.18726C26.42 5.08618 26.3973 4.9624 26.3973 4.81592C26.3973 4.55664 26.4852 4.35962 26.661 4.22485C26.8382 4.08862 27.0968 4.02051 27.4366 4.02051C27.6827 4.02051 27.9552 4.052 28.254 4.11499V4.81592H28.0584L27.9596 4.41162C27.8101 4.30322 27.6358 4.24902 27.4366 4.24902C27.2564 4.24902 27.118 4.28271 27.0213 4.3501C26.9246 4.41602 26.8763 4.51782 26.8763 4.65552C26.8763 4.75366 26.9166 4.83789 26.9971 4.9082C27.0777 4.97705 27.2037 5.03857 27.3751 5.09277C27.7105 5.20264 27.9405 5.29858 28.065 5.38062C28.191 5.46118 28.2869 5.56152 28.3529 5.68164C28.4188 5.80176 28.4517 5.94312 28.4517 6.10571C28.4517 6.7312 28.0833 7.04395 27.3465 7.04395C27.1781 7.04395 27.0059 7.0293 26.8302 7C26.6558 6.97217 26.5057 6.93481 26.3797 6.88794V6.09692ZM30.3789 4.92578C30.3789 4.69141 30.335 4.52808 30.2471 4.43579C30.1607 4.34204 30.0076 4.29517 29.7879 4.29517H29.6143V5.60254H29.7966C30.0003 5.60254 30.1482 5.55127 30.2405 5.44873C30.3328 5.34619 30.3789 5.17188 30.3789 4.92578ZM29.6143 5.84424V6.78027L30.1043 6.8396V7H28.5706V6.8396L28.9199 6.78027V4.271L28.542 4.21387V4.05347H29.8406C30.2581 4.05347 30.5701 4.12378 30.7766 4.2644C30.9832 4.40356 31.0864 4.62256 31.0864 4.92139C31.0864 5.53662 30.7275 5.84424 30.0098 5.84424H29.6143ZM31.113 7V6.8374L31.4909 6.78027V4.27319L31.113 4.21387V4.05347H32.561V4.21387L32.183 4.27319V5.36304H33.3871V4.27319L33.0092 4.21387V4.05347H34.4616V4.21387L34.0815 4.27319V6.78027L34.4616 6.8374V7H33.0092V6.8374L33.3871 6.78027V5.60474H32.183V6.78027L32.561 6.8374V7H31.113ZM34.4354 6.8396L34.8133 6.78027V4.271L34.4354 4.21387V4.05347H36.9447V4.80273H36.7447L36.6744 4.32593C36.5104 4.30542 36.2731 4.29517 35.9625 4.29517H35.5055V5.37622H36.2767L36.3448 5.05103H36.5404V5.9563H36.3448L36.2767 5.62231H35.5055V6.7583H36.0614C36.4393 6.7583 36.6869 6.74658 36.8041 6.72314L36.9293 6.17822H37.1293L37.0875 7H34.4354V6.8396ZM38.3292 5.75195V6.78027L38.7071 6.8396V7H37.2854V6.8396L37.6348 6.78027V4.271L37.2569 4.21387V4.05347H38.6653C39.0989 4.05347 39.4227 4.12012 39.6365 4.25342C39.8504 4.38672 39.9573 4.59473 39.9573 4.87744C39.9573 5.29932 39.7596 5.57031 39.3641 5.69043L40.1507 6.78027L40.4693 6.8396V7H39.5157L38.6939 5.75195H38.3292ZM39.2718 4.88184C39.2718 4.66211 39.2264 4.50977 39.1355 4.4248C39.0447 4.33838 38.8785 4.29517 38.6368 4.29517H38.3292V5.51025H38.6478C38.8733 5.51025 39.0337 5.46338 39.129 5.36963C39.2242 5.27588 39.2718 5.11328 39.2718 4.88184ZM40.3288 6.8396L40.7068 6.78027V4.271L40.3288 4.21387V4.05347H42.8381V4.80273H42.6382L42.5679 4.32593C42.4038 4.30542 42.1665 4.29517 41.8559 4.29517H41.3989V5.37622H42.1701L42.2383 5.05103H42.4338V5.9563H42.2383L42.1701 5.62231H41.3989V6.7583H41.9548C42.3327 6.7583 42.5803 6.74658 42.6975 6.72314L42.8227 6.17822H43.0227L42.9809 7H40.3288V6.8396Z" fill="#F5E9DA"/>
</svg>
